<svg xmlns="http://www.w3.org/2000/svg" width="32" height="32" viewBox="0 0 24 24"><!-- Icon from Material Symbols by Google - https://github.com/google/material-design-icons/blob/master/LICENSE --><path fill="white" d="M7.5 18q.625 0 1.063-.437T9 16.5t-.437-1.062T7.5 15t-1.062.438T6 16.5t.438 1.063T7.5 18m0-9q.625 0 1.063-.437T9 7.5t-.437-1.062T7.5 6t-1.062.438T6 7.5t.438 1.063T7.5 9m0 4.5q.625 0 1.063-.437T9 12t-.437-1.062T7.5 10.5t-1.062.438T6 12t.438 1.063T7.5 13.5m9 4.5q.625 0 1.063-.437T18 16.5t-.437-1.062T16.5 15t-1.062.438T15 16.5t.438 1.063T16.5 18m0-9q.625 0 1.063-.437T18 7.5t-.437-1.062T16.5 6t-1.062.438T15 7.5t.438 1.063T16.5 9M5 21q-.825 0-1.412-.587T3 19V5q0-.825.588-1.412T5 3h14q.825 0 1.413.588T21 5v14q0 .825-.587 1.413T19 21zm0-2h14V5H5zM5 5v14zm11.5 8.5q.625 0 1.063-.437T18 12t-.437-1.062T16.5 10.5t-1.062.438T15 12t.438 1.063t1.062.437M12 9q.625 0 1.063-.437T13.5 7.5t-.437-1.062T12 6t-1.062.438T10.5 7.5t.438 1.063T12 9m0 9q.625 0 1.063-.437T13.5 16.5t-.437-1.062T12 15t-1.062.438T10.5 16.5t.438 1.063T12 18m0-4.5q.625 0 1.063-.437T13.5 12t-.437-1.062T12 10.5t-1.062.438T10.5 12t.438 1.063T12 13.5"/></svg>
