<svg xmlns="http://www.w3.org/2000/svg" width="32" height="32" viewBox="0 0 24 24"><!-- Icon from Material Symbols by Google - https://github.com/google/material-design-icons/blob/master/LICENSE --><path fill="white" d="m2.1 2.075l19.8 19.8l-1.425 1.425l-1.1-1.1q-.5.375-1.1.588T17 23h-6.95q-.75 0-1.4-.337T7.575 21.7L1.2 12.375l.6-.575q.475-.475 1.125-.55t1.175.3L7 13.575v-3.75L.675 3.5zM21 18.15l-6-5.975V3q0-.425.288-.712T16 2t.713.288T17 3v9.175h2V5q0-.425.288-.712T20 4t.713.288T21 5zm-8-8l-2-2V2q0-.425.288-.712T12 1t.713.288T13 2zm-4-4l-2-2V4q0-.425.288-.712T8 3t.713.288T9 4z"/></svg>
