<svg xmlns="http://www.w3.org/2000/svg" width="32" height="32" viewBox="0 0 24 24"><!-- Icon from Material Symbols by Google - https://github.com/google/material-design-icons/blob/master/LICENSE --><path fill="white" d="M5 21q-.825 0-1.412-.587T3 19V5q0-.825.588-1.412T5 3h5v18zm7 0q-.425 0-.712-.288T11 20t.288-.712T12 19t.713.288T13 20t-.288.713T12 21m0-4q-.425 0-.712-.288T11 16t.288-.712T12 15t.713.288T13 16t-.288.713T12 17m0-4q-.425 0-.712-.288T11 12t.288-.712T12 11t.713.288T13 12t-.288.713T12 13m0-4q-.425 0-.712-.288T11 8t.288-.712T12 7t.713.288T13 8t-.288.713T12 9m0-4q-.425 0-.712-.288T11 4t.288-.712T12 3t.713.288T13 4t-.288.713T12 5m2 14q-.425 0-.712-.288T13 18t.288-.712T14 17t.713.288T15 18t-.288.713T14 19m0-4q-.425 0-.712-.288T13 14t.288-.712T14 13t.713.288T15 14t-.288.713T14 15m0-4q-.425 0-.712-.288T13 10t.288-.712T14 9t.713.288T15 10t-.288.713T14 11m0-4q-.425 0-.712-.288T13 6t.288-.712T14 5t.713.288T15 6t-.288.713T14 7m2 14q-.425 0-.712-.288T15 20t.288-.712T16 19t.713.288T17 20t-.288.713T16 21m0-4q-.425 0-.712-.288T15 16t.288-.712T16 15t.713.288T17 16t-.288.713T16 17m0-4q-.425 0-.712-.288T15 12t.288-.712T16 11t.713.288T17 12t-.288.713T16 13m0-4q-.425 0-.712-.288T15 8t.288-.712T16 7t.713.288T17 8t-.288.713T16 9m0-4q-.425 0-.712-.288T15 4t.288-.712T16 3t.713.288T17 4t-.288.713T16 5m2 14q-.425 0-.712-.288T17 18t.288-.712T18 17t.713.288T19 18t-.288.713T18 19m0-4q-.425 0-.712-.288T17 14t.288-.712T18 13t.713.288T19 14t-.288.713T18 15m0-4q-.425 0-.712-.288T17 10t.288-.712T18 9t.713.288T19 10t-.288.713T18 11m0-4q-.425 0-.712-.288T17 6t.288-.712T18 5t.713.288T19 6t-.288.713T18 7m2 14q-.425 0-.712-.288T19 20t.288-.712T20 19t.713.288T21 20t-.288.713T20 21m0-4q-.425 0-.712-.288T19 16t.288-.712T20 15t.713.288T21 16t-.288.713T20 17m0-4q-.425 0-.712-.288T19 12t.288-.712T20 11t.713.288T21 12t-.288.713T20 13m0-4q-.425 0-.712-.288T19 8t.288-.712T20 7t.713.288T21 8t-.288.713T20 9m0-4q-.425 0-.712-.288T19 4t.288-.712T20 3t.713.288T21 4t-.288.713T20 5"/></svg>
