<svg xmlns="http://www.w3.org/2000/svg" width="32" height="32" viewBox="0 0 24 24"><!-- Icon from Material Symbols by Google - https://github.com/google/material-design-icons/blob/master/LICENSE --><path fill="white" d="M6 8h9V6q0-1.25-.875-2.125T12 3t-2.125.875T9 6H7q0-2.075 1.463-3.537T12 1t3.538 1.463T17 6v2h1q.825 0 1.413.588T20 10v10q0 .825-.587 1.413T18 22H6q-.825 0-1.412-.587T4 20V10q0-.825.588-1.412T6 8m6 9q.825 0 1.413-.587T14 15t-.587-1.412T12 13t-1.412.588T10 15t.588 1.413T12 17"/></svg>
