<svg xmlns="http://www.w3.org/2000/svg" width="32" height="32" viewBox="0 0 24 24"><!-- Icon from Material Symbols by Google - https://github.com/google/material-design-icons/blob/master/LICENSE --><path fill="white" d="M15.85 22q-.35 0-.6-.25t-.25-.6v-3.3q0-.35.25-.6t.6-.25H16v-1q0-.825.588-1.412T18 14t1.413.588T20 16v1h.15q.35 0 .6.25t.25.6v3.3q0 .35-.25.6t-.6.25zM17 17h2v-1q0-.425-.288-.712T18 15t-.712.288T17 16zM5 9q0-2.625 1.7-4.587T11 2.074V9zm8 0V2.075q2.6.375 4.3 2.338T19 9zm-1 13q-2.925 0-4.962-2.037T5 15v-4h14v1.1q-.25-.05-.488-.075T18 12q-2.075 0-3.537 1.463T13 17v4.925q-.25.05-.488.063T12 22"/></svg>
