<svg xmlns="http://www.w3.org/2000/svg" width="32" height="32" viewBox="0 0 24 24"><!-- Icon from Material Symbols by Google - https://github.com/google/material-design-icons/blob/master/LICENSE --><path fill="white" d="M11 22.95v-2q-3.125-.35-5.363-2.587T3.05 13h-2v-2h2q.35-3.125 2.588-5.363T11 3.05v-2h2v2q3.125.35 5.363 2.588T20.95 11h2v2h-2q-.35 3.125-2.587 5.363T13 20.95v2zM12 19q2.9 0 4.95-2.05T19 12t-2.05-4.95T12 5T7.05 7.05T5 12t2.05 4.95T12 19m0-3q-1.65 0-2.825-1.175T8 12t1.175-2.825T12 8t2.825 1.175T16 12t-1.175 2.825T12 16"/></svg>
