<svg xmlns="http://www.w3.org/2000/svg" width="32" height="32" viewBox="0 0 24 24"><!-- Icon from Material Symbols by Google - https://github.com/google/material-design-icons/blob/master/LICENSE --><path fill="currentColor" d="M8 17q.425 0 .713-.288T9 16t-.288-.712T8 15t-.712.288T7 16t.288.713T8 17m0-4q.425 0 .713-.288T9 12t-.288-.712T8 11t-.712.288T7 12t.288.713T8 13m0-4q.425 0 .713-.288T9 8t-.288-.712T8 7t-.712.288T7 8t.288.713T8 9m3 8h6v-2h-6zm0-4h6v-2h-6zm0-4h6V7h-6zM5 21q-.825 0-1.412-.587T3 19V5q0-.825.588-1.412T5 3h14q.825 0 1.413.588T21 5v14q0 .825-.587 1.413T19 21z"/></svg>
