<svg xmlns="http://www.w3.org/2000/svg" width="32" height="32" viewBox="0 0 15 15">
	<path fill="white" d="m.851 5.4l.137.48zm13.298 0l.137-.481zM4.58 12.352l.44.24zm5.84 0l.438-.239zM2.996 3.757l-.464-.185zm-.961 1.057a.5.5 0 0 0 .928.372zm9.967-1.057l.464-.185zm.033 1.429a.5.5 0 1 0 .928-.372zm1.964.68V9.21h1V5.865zM11.21 12h-.542v1h.542zm-6.878 0H3.79v1h.542zM1 9.21V5.865H0V9.21zM.988 5.88a23.7 23.7 0 0 1 13.024 0l.274-.961a24.7 24.7 0 0 0-13.572 0zM3.79 12A2.79 2.79 0 0 1 1 9.21H0A3.79 3.79 0 0 0 3.79 13zm.352.113a.22.22 0 0 1 .19-.113v1a.78.78 0 0 0 .687-.408zm.877.479c1.071-1.963 3.89-1.963 4.962 0l.877-.479c-1.45-2.658-5.267-2.658-6.716 0zM10.668 12c.08 0 .152.043.19.113l-.877.479a.78.78 0 0 0 .687.408zM14 9.21A2.79 2.79 0 0 1 11.21 12v1A3.79 3.79 0 0 0 15 9.21zm1-3.345a.984.984 0 0 0-.714-.946l-.274.961A.02.02 0 0 1 14 5.865zm-14 0a.02.02 0 0 1-.012.015l-.274-.96A.984.984 0 0 0 0 5.865zm1.533-2.293l-.497 1.242l.928.372l.497-1.243zm9.006.37l.497 1.244l.928-.372l-.497-1.242zM4.854 3h5.292V2H4.854zm7.613.572A2.5 2.5 0 0 0 10.146 2v1a1.5 1.5 0 0 1 1.393.943zm-9.006.37A1.5 1.5 0 0 1 4.854 3V2a2.5 2.5 0 0 0-2.321 1.572z" />
</svg>