<?xml version="1.0" encoding="UTF-8" standalone="no"?>
<svg
   width="32"
   height="32"
   viewBox="0 0 24 24"
   version="1.1"
   id="svg1"
   sodipodi:docname="flip90.svg"
   inkscape:version="1.4.2 (ebf0e940d0, 2025-05-08)"
   xmlns:inkscape="http://www.inkscape.org/namespaces/inkscape"
   xmlns:sodipodi="http://sodipodi.sourceforge.net/DTD/sodipodi-0.dtd"
   xmlns="http://www.w3.org/2000/svg"
   xmlns:svg="http://www.w3.org/2000/svg">
  <defs
     id="defs1" />
  <sodipodi:namedview
     id="namedview1"
     pagecolor="#ffffff"
     bordercolor="#000000"
     borderopacity="0.25"
     inkscape:showpageshadow="2"
     inkscape:pageopacity="0.0"
     inkscape:pagecheckerboard="0"
     inkscape:deskcolor="#d1d1d1"
     inkscape:zoom="32"
     inkscape:cx="18.3125"
     inkscape:cy="14.46875"
     inkscape:window-width="2560"
     inkscape:window-height="1402"
     inkscape:window-x="0"
     inkscape:window-y="0"
     inkscape:window-maximized="1"
     inkscape:current-layer="svg1" />
  <!-- Icon from Material Symbols by Google - https://github.com/google/material-design-icons/blob/master/LICENSE -->
  <path
     fill="currentColor"
     d="M 12,22 C 10.616667,22 9.3166667,21.737333 8.1,21.212 6.8833333,20.686667 5.825,19.974333 4.925,19.075 4.025,18.175667 3.3126667,17.117333 2.788,15.9 2.2633333,14.682667 2.0006667,13.382667 2,12 1.9993333,10.617333 2.262,9.3173333 2.788,8.1 3.314,6.8826667 4.0263333,5.8243333 4.925,4.925 5.8236667,4.0256667 6.882,3.3133333 8.1,2.788 9.318,2.2626667 10.618,2 12,2 c 1.382,0 2.682,0.2626667 3.9,0.788 1.218,0.5253333 2.276333,1.2376667 3.175,2.137 0.898667,0.8993333 1.611333,1.9576667 2.138,3.175 0.526667,1.2173333 0.789,2.517333 0.787,3.9 -0.002,1.382667 -0.264667,2.682667 -0.788,3.9 -0.523333,1.217333 -1.235667,2.275667 -2.137,3.175 -0.901333,0.899333 -1.959667,1.612 -3.175,2.138 C 14.684667,21.739 13.384667,22.001333 12,22 M 20,12 C 20,9.9778321 19.418096,8.0680972 17.675,6.325 15.931904,4.5819028 14.232703,3.7451172 12.00586,3.7451172 c 0,3.1215572 -0.0031,8.2546878 -0.0031,8.2546878"
     id="path1"
     sodipodi:nodetypes="cssssssssssssssscczcc" />
</svg>
