<svg xmlns="http://www.w3.org/2000/svg" width="32" height="32" viewBox="0 0 24 24">
	<path fill="white" d="M3 20.5q-.425 0-.712-.288T2 19.5v-6q0-.425.288-.712T3 12.5h6q.425 0 .713.288T10 13.5v6q0 .425-.288.713T9 20.5zm1-2h4v-4H4zM14.725 10h-7.45q-.575 0-.862-.513t.012-1.012L10.15 2.4q.3-.5.85-.5t.85.5l3.725 6.075q.3.5.013 1.013t-.863.512M9.05 8h3.9L11 4.85zm11.825 14.25l-1.95-1.95q-.525.35-1.137.525T16.5 21q-1.875 0-3.187-1.312T12 16.5t1.313-3.187T16.5 12t3.188 1.313T21 16.5q0 .65-.175 1.263t-.5 1.137l1.95 1.95q.275.275.275.7t-.275.7t-.7.275t-.7-.275M16.5 19q1.05 0 1.775-.725T19 16.5t-.725-1.775T16.5 14t-1.775.725T14 16.5t.725 1.775T16.5 19M11 8" />
</svg>