<svg xmlns="http://www.w3.org/2000/svg" width="32" height="32" viewBox="0 0 24 24"><!-- Icon from Material Symbols by Google - https://github.com/google/material-design-icons/blob/master/LICENSE --><path fill="currentColor" d="M11 23v-4.175L9.9 19.9l-1.4-1.4L12 15l3.5 3.5l-1.4 1.4l-1.1-1.075V23zm-5.5-7.5l-1.4-1.4L5.175 13H1v-2h4.175L4.1 9.9l1.4-1.4L9 12zm13 0L15 12l3.5-3.5l1.4 1.4l-1.075 1.1H23v2h-4.175l1.075 1.1zm-6.5-2q-.625 0-1.062-.437T10.5 12t.438-1.062T12 10.5t1.063.438T13.5 12t-.437 1.063T12 13.5M12 9L8.5 5.5l1.4-1.4L11 5.175V1h2v4.175L14.1 4.1l1.4 1.4z"/></svg>
