<svg xmlns="http://www.w3.org/2000/svg" width="32" height="32" viewBox="0 0 24 24"><!-- Icon from Material Symbols by Google - https://github.com/google/material-design-icons/blob/master/LICENSE --><path fill="currentColor" d="M12 21q-3.15 0-5.575-1.912T3.275 14.2q-.1-.375.15-.687t.675-.363q.4-.05.725.15t.45.6q.6 2.25 2.475 3.675T12 19q2.925 0 4.963-2.037T19 12t-2.037-4.962T12 5q-1.725 0-3.225.8T6.25 8H8q.425 0 .713.288T9 9t-.288.713T8 10H4q-.425 0-.712-.288T3 9V5q0-.425.288-.712T4 4t.713.288T5 5v1.35q1.275-1.6 3.113-2.475T12 3q1.875 0 3.513.713t2.85 1.924t1.925 2.85T21 12t-.712 3.513t-1.925 2.85t-2.85 1.925T12 21m0-7q-.825 0-1.412-.587T10 12t.588-1.412T12 10t1.413.588T14 12t-.587 1.413T12 14"/></svg>
