<svg xmlns="http://www.w3.org/2000/svg" width="32" height="32" viewBox="0 0 24 24"><!-- Icon from Material Symbols by Google - https://github.com/google/material-design-icons/blob/master/LICENSE -->
  <path fill="currentColor" d="M11 18q-1.65 0-2.825-1.175T7 14q-2.5.025-4.25-1.737T1 8q0-.825.588-1.412T3 6h4V5H5V3h6v2H9v1h3.175q.4 0 .763.15t.637.425l8.375 8.375Q23 16 23 17.45t-1.05 2.5t-2.5 1.05t-2.5-1.05L15 18zm0-4H8.975q0 .825.588 1.413T11 16h2zm1.175-6H3q0 1.65 1.175 2.825T7 12h4.825l6.55 6.55q.45.45 1.088.45t1.087-.45t.45-1.088t-.45-1.087zm0 0" />
</svg>