<?xml version="1.0" encoding="UTF-8" standalone="no"?>
<svg
   id="vector"
   width="24"
   height="24"
   viewBox="0 0 150.72 144.4"
   version="1.1"
   sodipodi:docname="ic_monado_notif.svg"
   inkscape:version="1.4 (e7c3feb100, 2024-10-09)"
   xmlns:inkscape="http://www.inkscape.org/namespaces/inkscape"
   xmlns:sodipodi="http://sodipodi.sourceforge.net/DTD/sodipodi-0.dtd"
   xmlns="http://www.w3.org/2000/svg"
   xmlns:svg="http://www.w3.org/2000/svg">
  <defs
     id="defs1" />
  <sodipodi:namedview
     id="namedview1"
     pagecolor="#ffffff"
     bordercolor="#000000"
     borderopacity="0.25"
     inkscape:showpageshadow="2"
     inkscape:pageopacity="0.0"
     inkscape:pagecheckerboard="true"
     inkscape:deskcolor="#d1d1d1"
     inkscape:zoom="24.5"
     inkscape:cx="10.265306"
     inkscape:cy="15.469388"
     inkscape:window-width="2560"
     inkscape:window-height="1378"
     inkscape:window-x="0"
     inkscape:window-y="0"
     inkscape:window-maximized="1"
     inkscape:current-layer="vector" />
  <g
     transform="translate(6.0288, 8.5612955) scale(0.92, 0.8814225)"
     id="g_0"
     style="fill:#ffffff">
    <path
       fill="#782b90"
       d="m143.23,19.75L79.85,0.66c-2.93,-0.88 -6.05,-0.88 -8.97,0L7.49,19.75c-4.45,1.34 -7.49,5.43 -7.49,10.08v85.07c0,4.66 3.07,8.77 7.54,10.09l63.43,18.77c2.87,0.85 5.92,0.85 8.79,0l63.43,-18.77c4.47,-1.32 7.54,-5.43 7.54,-10.09L150.72,29.83c0,-4.64 -3.04,-8.74 -7.49,-10.08ZM49.02,104l-17.99,-5.35c-2.52,-0.75 -4.24,-3.06 -4.24,-5.68v-36.81l22.23,30.57v17.28ZM75.36,108.15v0l-0,-0 -0,0v-0L26.79,41.84l17.99,-5.35c2.35,-0.7 4.88,0.12 6.38,2.06l24.19,31.33 24.19,-31.33c1.5,-1.94 4.04,-2.76 6.38,-2.06l17.99,5.35 -48.56,66.3ZM123.93,92.96c0,2.62 -1.72,4.94 -4.24,5.68l-17.99,5.35v-17.28l22.23,-30.57v36.81Z"
       id="path1"
       style="fill:#ffffff" />
  </g>
</svg>
