<svg xmlns="http://www.w3.org/2000/svg" width="32" height="32" viewBox="0 0 24 24"><!-- Icon from Material Symbols by Google - https://github.com/google/material-design-icons/blob/master/LICENSE --><path fill="white" d="M12 22q-1.525 0-3.125-.55t-2.9-1.5t-2.137-2.225T3 15v-3l4 3l-1.55 1.55q.725 1.275 2.3 2.2T11 19.925V11H8V9h3V7.825q-.875-.325-1.437-1.088T9 5q0-1.25.875-2.125T12 2t2.125.875T15 5q0 .975-.562 1.738T13 7.825V9h3v2h-3v8.925q1.675-.25 3.25-1.175t2.3-2.2L17 15l4-3v3q0 1.45-.837 2.725t-2.138 2.225t-2.9 1.5T12 22m0-16q.425 0 .713-.287T13 5t-.288-.712T12 4t-.712.288T11 5t.288.713T12 6"/></svg>
