<svg xmlns="http://www.w3.org/2000/svg" width="32" height="32" viewBox="0 0 24 24"><!-- Icon from Material Symbols by Google - https://github.com/google/material-design-icons/blob/master/LICENSE -->
  <path fill="white" d="M12 18.5q.625 0 1.063-.437T13.5 17h-3q0 .625.438 1.063T12 18.5M7 16h10v-2h-1v-2.6q0-1.525-.788-2.787T13 7V5.5h-2V7q-1.425.35-2.212 1.613T8 11.4V14H7zm5 6q-2.075 0-3.9-.788t-3.175-2.137T2.788 15.9T2 12t.788-3.9t2.137-3.175T8.1 2.788T12 2t3.9.788t3.175 2.137T21.213 8.1T22 12t-.788 3.9t-2.137 3.175t-3.175 2.138T12 22" />
</svg>