<svg xmlns="http://www.w3.org/2000/svg" width="32" height="32" viewBox="0 0 24 24"><!-- Icon from Material Symbols by Google - https://github.com/google/material-design-icons/blob/master/LICENSE --><path fill="white" d="M7.5 18q-1.65 0-2.825-1.175T3.5 14V9.925q0-1.275.8-2.238T6.35 6.5q1.425-.275 2.825-.387T12 6t2.838.113t2.812.387q1.25.25 2.05 1.2t.8 2.225V14q0 1.65-1.175 2.825T16.5 18h-1q-.325 0-.65-.038t-.625-.162l-1.6-.55q-.3-.125-.625-.125t-.625.125l-1.6.55q-.3.125-.625.162T8.5 18zm0-2h1q.175 0 .338-.025t.312-.075q.725-.225 1.413-.475t1.437-.25t1.45.238t1.4.487q.15.05.313.075T15.5 16h1q.825 0 1.413-.587T18.5 14V9.925q0-.55-.35-.95t-.875-.525q-1.3-.275-2.613-.362T12 8t-2.65.1t-2.625.35q-.525.1-.875.513t-.35.962V14q0 .825.588 1.413T7.5 16M1 14v-4h1.5v4zm20.5 0v-4H23v4zm-14 2q-.825 0-1.412-.587T5.5 14V9.925q0-.55.35-.962t.875-.513Q8.05 8.2 9.35 8.1T12 8t2.663.088t2.612.362q.525.125.875.525t.35.95V14q0 .825-.587 1.413T16.5 16h-1q-.175 0-.337-.025t-.313-.075q-.7-.25-1.4-.488T12 15.176t-1.437.25t-1.413.475q-.15.05-.312.075T8.5 16z"/></svg>
