<svg xmlns="http://www.w3.org/2000/svg" width="32" height="32" viewBox="0 0 24 24"><!-- Icon from Material Symbols by Google - https://github.com/google/material-design-icons/blob/master/LICENSE --><path fill="white" d="M4 21v-9.375L2.2 13L1 11.4L12 3l11 8.4l-1.2 1.575l-1.8-1.35V21zm4-6q-.425 0-.712-.288T7 14t.288-.712T8 13t.713.288T9 14t-.288.713T8 15m4 0q-.425 0-.712-.288T11 14t.288-.712T12 13t.713.288T13 14t-.288.713T12 15m4 0q-.425 0-.712-.288T15 14t.288-.712T16 13t.713.288T17 14t-.288.713T16 15"/></svg>
