<svg xmlns="http://www.w3.org/2000/svg" width="32" height="32" viewBox="0 0 24 24"><!-- Icon from Material Symbols by Google - https://github.com/google/material-design-icons/blob/master/LICENSE --><path fill="white" d="M8 19q-2.925 0-4.962-2.037T1 12t2.038-4.962T8 5h8q2.925 0 4.963 2.038T23 12t-2.037 4.963T16 19zm.75-7.75q0 1.525 1.025 2.663T12 16q1.2-.95 2.225-2.087t1.025-2.663q0-1.35-.95-2.3T12 8t-2.3.95t-.95 2.3M12 12q-.425 0-.712-.288T11 11t.288-.712T12 10t.713.288T13 11t-.288.713T12 12"/></svg>
